<svg xmlns="http://www.w3.org/2000/svg" xmlns:xlink="http://www.w3.org/1999/xlink" width="109" height="101.522" viewBox="0 0 109 101.522">
  <defs>
    <linearGradient id="linear-gradient" x1="0.5" x2="0.5" y2="1" gradientUnits="objectBoundingBox">
      <stop offset="0" stop-color="#eb00ff"/>
      <stop offset="1" stop-color="#9300a7"/>
    </linearGradient>
  </defs>
  <g id="広告_アドバタイジングの無料アイコン素材_2" data-name="広告・アドバタイジングの無料アイコン素材 2" transform="translate(0 -17.561)">
    <path id="パス_63" data-name="パス 63" d="M223.767,463.106H208.636a3.2,3.2,0,0,0-3.2,3.2v3.458h0v.016h21.524V466.3A3.2,3.2,0,0,0,223.767,463.106Z" transform="translate(-161.703 -350.693)" fill="url(#linear-gradient)"/>
    <path id="パス_64" data-name="パス 64" d="M339.176,48.486h0l-.017.016h11.957v-.016a5.044,5.044,0,0,1-.231-1.585V40.591a2.693,2.693,0,0,1-.331-.281,5,5,0,0,1-1.222-1.652h-8.39a5.013,5.013,0,0,1-1.222,1.652,2.673,2.673,0,0,1-.331.281V46.9a5.86,5.86,0,0,1-.128,1.176,3.672,3.672,0,0,1-.1.409Z" transform="translate(-266.955 -16.606)" fill="url(#linear-gradient)"/>
    <path id="パス_65" data-name="パス 65" d="M116.67,48.486h0V48.5h11.957v-.016A5.044,5.044,0,0,1,128.4,46.9V40.591a2.686,2.686,0,0,1-.33-.281,5,5,0,0,1-1.222-1.652h-8.39a5.29,5.29,0,0,1-1.239,1.652,2.611,2.611,0,0,1-.33.281V46.9a5.559,5.559,0,0,1-.214,1.578s0,0,0,.007Z" transform="translate(-91.832 -16.606)" fill="url(#linear-gradient)"/>
    <path id="パス_66" data-name="パス 66" d="M227.917,48.486h0V48.5h11.956v-.016a5.068,5.068,0,0,1-.231-1.585V40.591a2.634,2.634,0,0,1-.331-.281,5.005,5.005,0,0,1-1.222-1.652H229.7a4.846,4.846,0,0,1-1.239,1.652,2.679,2.679,0,0,1-.331.281V46.9a5.582,5.582,0,0,1-.213,1.578.042.042,0,0,1,0,.007Z" transform="translate(-179.396 -16.606)" fill="url(#linear-gradient)"/>
    <path id="パス_67" data-name="パス 67" d="M108.97,48.5H109V38.659H97.67a5,5,0,0,1-1.222,1.652,2.615,2.615,0,0,1-.331.281V46.9a5.843,5.843,0,0,1-.131,1.187,3.7,3.7,0,0,1-.1.4H95.9l-.016.016h4.326V97.3H8.786V48.5h4.327v-.016a5.044,5.044,0,0,1-.231-1.585V40.591a2.711,2.711,0,0,1-.331-.281,5,5,0,0,1-1.222-1.652H0v9.827H0V48.5H2.18V97.3H0v9.827H0v.016H49.79v20.13h0v.016h9.417V107.148H109V97.3h-2.18V48.5Z" transform="translate(0 -16.606)" fill="url(#linear-gradient)"/>
    <path id="パス_68" data-name="パス 68" d="M68.281,21.706h1.205v3.287h-.974v6.954a2.635,2.635,0,0,0,.512,1.585.016.016,0,0,0,.016.016,2.747,2.747,0,0,0,4.526,0v-.016a2.635,2.635,0,0,0,.512-1.585V24.993H73.1V21.706h1.222a1.8,1.8,0,0,0,1.8-1.8v-.529a1.807,1.807,0,0,0-1.8-1.816H68.281a1.8,1.8,0,0,0-1.8,1.816v.529A1.793,1.793,0,0,0,68.281,21.706Z" transform="translate(-52.328)" fill="url(#linear-gradient)"/>
    <path id="パス_69" data-name="パス 69" d="M179.525,21.706h1.206v3.287h-.975v6.954a2.641,2.641,0,0,0,.512,1.585.016.016,0,0,0,.017.016,2.747,2.747,0,0,0,4.525,0v-.016a2.635,2.635,0,0,0,.512-1.585V24.993h-.974V21.706h1.222a1.8,1.8,0,0,0,1.8-1.8v-.529a1.808,1.808,0,0,0-1.8-1.816h-6.044a1.808,1.808,0,0,0-1.8,1.816v.529A1.8,1.8,0,0,0,179.525,21.706Z" transform="translate(-139.889)" fill="url(#linear-gradient)"/>
    <path id="パス_70" data-name="パス 70" d="M290.771,21.706h1.222v3.287H291v6.954a2.641,2.641,0,0,0,.511,1.585c0,.016.017.016.017.016a2.746,2.746,0,0,0,4.525,0,.016.016,0,0,0,.017-.016,2.635,2.635,0,0,0,.512-1.585V24.993h-.991V21.706h1.222a1.8,1.8,0,0,0,1.8-1.8v-.529a1.808,1.808,0,0,0-1.8-1.816h-6.045a1.807,1.807,0,0,0-1.8,1.816v.529A1.8,1.8,0,0,0,290.771,21.706Z" transform="translate(-227.452)" fill="url(#linear-gradient)"/>
    <path id="パス_71" data-name="パス 71" d="M402.013,21.706h1.222v3.287h-.991v6.954a2.635,2.635,0,0,0,.512,1.585.016.016,0,0,0,.016.016,2.747,2.747,0,0,0,4.526,0,.016.016,0,0,0,.016-.016,2.634,2.634,0,0,0,.512-1.585V24.993h-.991V21.706h1.222a1.8,1.8,0,0,0,1.8-1.8v-.529a1.807,1.807,0,0,0-1.8-1.816h-6.045a1.807,1.807,0,0,0-1.8,1.816v.529A1.8,1.8,0,0,0,402.013,21.706Z" transform="translate(-315.011)" fill="url(#linear-gradient)"/>
    <path id="パス_72" data-name="パス 72" d="M76.022,172.667h.006l-.006.016h6.771l1.288-3.782H90.06l1.256,3.782h6.771L89.449,149.05H84.61l-6.373,17.538Zm13.719-8.407H85.671l-1.242,0,2.707-7.774,1.961,5.846Z" transform="translate(-59.838 -103.496)" fill="url(#linear-gradient)"/>
    <path id="パス_73" data-name="パス 73" d="M204.806,172.683a9.841,9.841,0,0,0,4.228-.859,8.387,8.387,0,0,0,3.155-2.741,9.336,9.336,0,0,0,.875-1.718,8.462,8.462,0,0,0,.463-1.932,16.258,16.258,0,0,0,.165-2.114c.016-.744.016-1.552.016-2.461,0-.892,0-1.7-.016-2.443a16.431,16.431,0,0,0-.165-2.114,8.473,8.473,0,0,0-.463-1.932,8.134,8.134,0,0,0-.908-1.718,7.881,7.881,0,0,0-3.122-2.725,9.608,9.608,0,0,0-4.228-.876h-8.852v23.617h0v.016h8.852Zm3.468-15.557c.066.429.1.941.132,1.552.017.627.017,1.354.017,2.18,0,.843,0,1.585-.017,2.2-.033.6-.066,1.123-.132,1.553a5.9,5.9,0,0,1-.247,1.09,3.061,3.061,0,0,1-.479.81,3.7,3.7,0,0,1-3.1,1.338h-3.2V153.9h3.2a3.724,3.724,0,0,1,3.1,1.3,3.367,3.367,0,0,1,.479.81A5.819,5.819,0,0,1,208.274,157.126Z" transform="translate(-154.237 -103.496)" fill="url(#linear-gradient)"/>
    <path id="パス_74" data-name="パス 74" d="M324.155,167.677v.02h0v.016h16.186v-3.3H324.155Z" transform="translate(-255.145 -115.586)" fill="url(#linear-gradient)"/>
    <path id="パス_75" data-name="パス 75" d="M348,197.993H324.155v3.287h0v.016H348Z" transform="translate(-255.145 -142.02)" fill="url(#linear-gradient)"/>
    <path id="パス_76" data-name="パス 76" d="M348,232.47v-3.3H324.155v3.287h0v.016Z" transform="translate(-255.145 -166.557)" fill="url(#linear-gradient)"/>
  </g>
</svg>
