<svg xmlns="http://www.w3.org/2000/svg" width="84.146" height="79.773" viewBox="0 0 84.146 79.773">
  <g id="ブラウザ_ログイン画面_のアイコン" data-name="ブラウザ（ログイン画面）のアイコン" transform="translate(0 -13.303)">
    <path id="パス_84" data-name="パス 84" d="M0,13.3V90.884a2.2,2.2,0,0,0,2.206,2.193H81.941a2.2,2.2,0,0,0,2.206-2.193V13.3Zm6.2,6.755a1.664,1.664,0,1,1,1.657,1.657A1.654,1.654,0,0,1,6.2,20.058Zm7.787,1.392V18.67a.857.857,0,0,1,.854-.867H69.306a.857.857,0,0,1,.854.867v2.78a.857.857,0,0,1-.854.867H14.84A.858.858,0,0,1,13.986,21.45Zm62.785-2.389h0l.018.018L78.282,17.6l.969.982L77.792,20.04l0,0h0l-.018.018,1.478,1.478-.969.982L76.79,21.029l-1.479,1.492-.969-.982,1.479-1.478-1.479-1.479.969-.982,1.457,1.457ZM2.552,90.524V27.708H81.6V90.524Z" fill="#a5d445"/>
    <rect id="長方形_75" data-name="長方形 75" width="33.709" height="3.468" transform="translate(25.221 63.521)" fill="#a5d445"/>
    <path id="パス_85" data-name="パス 85" d="M212.965,370.061h-17.11a1.594,1.594,0,0,0-1.594,1.594v3.251a1.594,1.594,0,0,0,1.594,1.594h17.11a1.594,1.594,0,0,0,1.594-1.594v-3.251A1.594,1.594,0,0,0,212.965,370.061Z" transform="translate(-162.335 -298.125)" fill="#a5d445"/>
    <path id="パス_86" data-name="パス 86" d="M187.3,159.229a13.508,13.508,0,1,0-13.514-13.5A13.527,13.527,0,0,0,187.3,159.229Zm7.938-5.976a3.85,3.85,0,0,0-.645-.935c-1.377-1.338-3.57-1.645-5.011-2.945v-1.3c.714-.268.867-1.542,1.007-2.141h0a.63.63,0,0,0,.2,0l.014,0,.008,0c.924-.023,1.238-2.022.6-2.542a3.029,3.029,0,0,0-.892-3.863c-.281-.217-.664-.332-.893-.548-.242-.242-.382-.6-.651-.829a2.835,2.835,0,0,0-1.887-.65,4.651,4.651,0,0,0-4.144,4.564,2.747,2.747,0,0,0,.306,1.326c-.765.637-.217,2.537.816,2.537.05.573.369,1.9,1.02,2.142v1.3c-1.326,1.224-3.213,1.645-4.653,2.678a4.437,4.437,0,0,0-.905,1.162c-.027.042-.054.079-.08.122a10.843,10.843,0,0,1-3.107-7.607A10.964,10.964,0,1,1,195.9,152.5Q195.586,152.89,195.236,153.253Z" transform="translate(-145.223 -99.367)" fill="#a5d445"/>
  </g>
</svg>
