<svg xmlns="http://www.w3.org/2000/svg" width="19.191" height="13.286" viewBox="0 0 19.191 13.286">
  <g id="Icon_ionic-ios-mail" data-name="Icon ionic-ios-mail" transform="translate(-3.375 -7.875)">
    <path id="パス_37" data-name="パス 37" d="M22.409,10.342,17.446,15.4a.089.089,0,0,0,0,.129l3.474,3.7a.6.6,0,0,1,0,.849.6.6,0,0,1-.849,0l-3.46-3.686a.1.1,0,0,0-.134,0l-.844.858a3.714,3.714,0,0,1-2.648,1.116,3.789,3.789,0,0,1-2.7-1.149l-.812-.826a.1.1,0,0,0-.134,0l-3.46,3.686a.6.6,0,0,1-.849,0,.6.6,0,0,1,0-.849l3.474-3.7a.1.1,0,0,0,0-.129L3.532,10.342a.091.091,0,0,0-.157.065V20.524A1.481,1.481,0,0,0,4.851,22H21.09a1.481,1.481,0,0,0,1.476-1.476V10.407A.092.092,0,0,0,22.409,10.342Z" transform="translate(0 -0.839)" fill="#401d00"/>
    <path id="パス_38" data-name="パス 38" d="M13.263,16.322a2.508,2.508,0,0,0,1.8-.757L22.305,8.2a1.45,1.45,0,0,0-.913-.323H5.139a1.44,1.44,0,0,0-.913.323l7.238,7.367A2.508,2.508,0,0,0,13.263,16.322Z" transform="translate(-0.293 0)" fill="#401d00"/>
  </g>
</svg>
