<svg xmlns="http://www.w3.org/2000/svg" width="124.568" height="76.844" viewBox="0 0 124.568 76.844">
  <g id="人物アイコン_チーム" data-name="人物アイコン　チーム" transform="translate(0.001 -98.078)">
    <path id="パス_87" data-name="パス 87" d="M35.9,193.605c-.019-.194-.08-.372-.08-.566v-1.661a7,7,0,0,1,.388-2.311,44.264,44.264,0,0,0,6.1-12.055c-2.144-4.524-4.091-10.154-4.091-15.735a35.163,35.163,0,0,1,.228-3.786,14.666,14.666,0,0,0-10.739-4.585c-8.611,0-15.6,7.025-15.6,17.943,0,8.736,7.109,18.217,7.109,18.217a7.205,7.205,0,0,1,.38,2.311v1.661a5.3,5.3,0,0,1-3.094,4.82L5.217,202.47a8.87,8.87,0,0,0-5.01,6.455l-.194,2.482a4.648,4.648,0,0,0,4.634,5H23.1l.756-9.72.049-.262a15.909,15.909,0,0,1,9-11.6Z" transform="translate(0 -41.488)" fill="#f4a953"/>
    <path id="パス_88" data-name="パス 88" d="M380.214,208.925a8.857,8.857,0,0,0-5.007-6.455l-11.294-4.611a5.3,5.3,0,0,1-3.087-4.82v-1.661a7.007,7.007,0,0,1,.384-2.311s7.1-9.481,7.1-18.217c0-10.918-6.983-17.943-15.609-17.943a14.67,14.67,0,0,0-10.739,4.592,33.979,33.979,0,0,1,.232,3.779c0,5.577-1.943,11.207-4.083,15.731a44.152,44.152,0,0,0,6.1,12.059,7.208,7.208,0,0,1,.384,2.311v1.661c0,.194-.065.372-.084.566l2.8,1.141a16,16,0,0,1,9.207,11.674l.046.266.753,9.724h18.456a4.648,4.648,0,0,0,4.63-5Z" transform="translate(-255.854 -41.489)" fill="#f4a953"/>
    <path id="パス_89" data-name="パス 89" d="M177.521,158.058l-13.663-5.584a6.421,6.421,0,0,1-3.737-5.832v-2.015a8.458,8.458,0,0,1,.468-2.8s8.592-11.465,8.592-22.041c0-13.214-8.451-21.71-18.878-21.71s-18.878,8.5-18.878,21.71c0,10.576,8.6,22.041,8.6,22.041a8.657,8.657,0,0,1,.468,2.8v2.015a6.434,6.434,0,0,1-3.745,5.832l-13.663,5.584a10.694,10.694,0,0,0-6.06,7.812l-.7,9.051h67.964l-.7-9.051A10.723,10.723,0,0,0,177.521,158.058Z" transform="translate(-88.021)" fill="#f4a953"/>
  </g>
</svg>
