<svg xmlns="http://www.w3.org/2000/svg" width="79.832" height="79.773" viewBox="0 0 79.832 79.773">
  <g id="グラフアイコン" transform="translate(0 -0.188)">
    <rect id="長方形_72" data-name="長方形 72" width="10.74" height="30.072" transform="translate(19.511 28.231)" fill="#37b6f2"/>
    <rect id="長方形_73" data-name="長方形 73" width="10.74" height="21.48" transform="translate(49.582 36.823)" fill="#37b6f2"/>
    <rect id="長方形_74" data-name="長方形 74" width="10.74" height="36.515" transform="translate(34.546 21.788)" fill="#37b6f2"/>
    <path id="パス_80" data-name="パス 80" d="M409.2,104.9l9.584-1.429a39.812,39.812,0,0,0-9.413-18.662l-6.853,6.851A30.123,30.123,0,0,1,409.2,104.9Z" transform="translate(-339.761 -71.425)" fill="#37b6f2"/>
    <path id="パス_81" data-name="パス 81" d="M455.188,231.719l-9.583,1.427c.059.769.1,1.546.1,2.33a30.389,30.389,0,0,1-.795,6.885l9.254,2.871a39.9,39.9,0,0,0,1.207-9.756C455.369,234.208,455.3,232.956,455.188,231.719Z" transform="translate(-375.537 -195.43)" fill="#37b6f2"/>
    <path id="パス_82" data-name="パス 82" d="M61.306,61.435A30.249,30.249,0,1,1,37.764,9.88V.188a39.911,39.911,0,1,0,39.59,53.718L68.1,51.035A30.315,30.315,0,0,1,61.306,61.435Z" transform="translate(0 0)" fill="#37b6f2"/>
    <path id="パス_83" data-name="パス 83" d="M294.274,10.348A39.789,39.789,0,0,0,269.754.189V9.88a30.067,30.067,0,0,1,17.669,7.32Z" transform="translate(-227.693 -0.001)" fill="#37b6f2"/>
  </g>
</svg>
