<svg xmlns="http://www.w3.org/2000/svg" xmlns:xlink="http://www.w3.org/1999/xlink" width="102.989" height="97.309" viewBox="0 0 102.989 97.309">
  <defs>
    <linearGradient id="linear-gradient" x1="0.5" x2="0.5" y2="1" gradientUnits="objectBoundingBox">
      <stop offset="0" stop-color="#0cbf02"/>
      <stop offset="1" stop-color="#088100"/>
    </linearGradient>
  </defs>
  <g id="ブラウザ_広告_のアイコン" data-name="ブラウザ（広告）のアイコン" transform="translate(0 -14.119)">
    <path id="パス_58" data-name="パス 58" d="M102.989,108.121v-94H0v94a3.326,3.326,0,0,0,3.34,3.307H99.666A3.313,3.313,0,0,0,102.989,108.121ZM8.02,23.981A2.216,2.216,0,1,1,10.236,26.2,2.215,2.215,0,0,1,8.02,23.981Zm8.193,0a2.208,2.208,0,1,1,2.2,2.217A2.211,2.211,0,0,1,16.213,23.981Zm11.329,1.53V22.39a1.045,1.045,0,0,1,1.045-1.045h63.1a1.059,1.059,0,0,1,1.061,1.045v3.121a1.06,1.06,0,0,1-1.061,1.046h-63.1A1.046,1.046,0,0,1,27.542,25.511ZM3.121,108.121V32.439H99.868v75.682l-.2.186H3.34l-.156-.062Z" fill="url(#linear-gradient)"/>
    <path id="パス_59" data-name="パス 59" d="M88.009,269.5H57.019v4.65h30.99Z" transform="translate(-45.55 -204.009)" fill="url(#linear-gradient)"/>
    <rect id="長方形_54" data-name="長方形 54" width="38.964" height="4.65" transform="translate(11.469 42.286)" fill="url(#linear-gradient)"/>
    <rect id="長方形_55" data-name="長方形 55" width="38.964" height="4.634" transform="translate(11.469 53.895)" fill="url(#linear-gradient)"/>
    <rect id="長方形_56" data-name="長方形 56" width="38.964" height="4.651" transform="translate(11.469 77.098)" fill="url(#linear-gradient)"/>
    <rect id="長方形_57" data-name="長方形 57" width="30.99" height="4.633" transform="translate(11.469 88.709)" fill="url(#linear-gradient)"/>
    <path id="パス_60" data-name="パス 60" d="M345.841,269.121l-.014.039-.016-.05-1.321,3.823-.442,1.247h.011l-.011.032h3.48l-.954-2.835Z" transform="translate(-274.842 -203.7)" fill="url(#linear-gradient)"/>
    <path id="パス_61" data-name="パス 61" d="M404.621,278.953a1.341,1.341,0,0,0-.531-.608,1.553,1.553,0,0,0-.9-.234,1.607,1.607,0,0,0-.921.234,1.313,1.313,0,0,0-.515.608,2.752,2.752,0,0,0-.233.936,9.01,9.01,0,0,0-.063,1.155,8.652,8.652,0,0,0,.063,1.155,2.744,2.744,0,0,0,.233.936,1.394,1.394,0,0,0,.515.64,1.75,1.75,0,0,0,.921.218,1.69,1.69,0,0,0,.9-.218,1.422,1.422,0,0,0,.531-.64,2.724,2.724,0,0,0,.249-.936,8.692,8.692,0,0,0,.063-1.155,9.009,9.009,0,0,0-.063-1.155A2.733,2.733,0,0,0,404.621,278.953Z" transform="translate(-320.7 -210.89)" fill="url(#linear-gradient)"/>
    <path id="パス_62" data-name="パス 62" d="M327.726,151.662H294.785v53.117h32.941ZM318.66,185.04a3.8,3.8,0,0,1-1.42.234,4.164,4.164,0,0,1-1.42-.234,2.778,2.778,0,0,1-1.076-.686,3.607,3.607,0,0,1-.421-.569,2.741,2.741,0,0,1-.156-.289,4.173,4.173,0,0,1-.312-1.03,6.724,6.724,0,0,1-.141-1.171c-.016-.406-.031-.827-.031-1.264s.016-.858.031-1.264a6.745,6.745,0,0,1,.141-1.155,4.148,4.148,0,0,1,.312-1.029,3.626,3.626,0,0,1,.577-.859,2.779,2.779,0,0,1,1.076-.687,4.006,4.006,0,0,1,1.4-.234,3.812,3.812,0,0,1,1.389.218,2.966,2.966,0,0,1,.854.568,2.322,2.322,0,0,1,.222.227v-.028c.01.011.022.017.032.028v-4.665h2.559v14.012h-2.5v-.545l.024-.4a.3.3,0,0,1-.024.022V184.2A3.421,3.421,0,0,1,318.66,185.04Zm-8.925.125-.828-2.481H303.93l-.842,2.481h-2.145l-.707-.01,5.084-14h2.153l3.811,10.464,1.281,3.548Z" transform="translate(-235.489 -109.876)" fill="url(#linear-gradient)"/>
  </g>
</svg>
