<svg xmlns="http://www.w3.org/2000/svg" width="189.653" height="61" viewBox="0 0 189.653 61">
  <g id="グループ_204" data-name="グループ 204" transform="translate(-41 -23)">
    <path id="パス_1" data-name="パス 1" d="M57.186,62a4.412,4.412,0,1,0,6.238-.164A4.412,4.412,0,0,0,57.186,62" transform="translate(18.688 -1.167)" fill="#8dc21f"/>
    <path id="パス_2" data-name="パス 2" d="M56.032,40.714l4.363,4.139a4.412,4.412,0,1,1,6.4,6.074l4.362,4.138L81.9,43.744a5.26,5.26,0,0,0-.195-7.415L70.383,25.588Z" transform="translate(18.666 12.8)" fill="#2ca6e0"/>
    <path id="パス_3" data-name="パス 3" d="M36.279,1.629,25.537,12.951,40.663,27.3,44.8,22.939a4.412,4.412,0,1,1,6.074-6.4l4.138-4.362L43.693,1.434a5.26,5.26,0,0,0-7.415.195" transform="translate(30.82 23)" fill="#fff000"/>
    <path id="パス_4" data-name="パス 4" d="M61.838,32.2a4.412,4.412,0,1,0,6.238-.164,4.412,4.412,0,0,0-6.238.164" transform="translate(16.834 10.712)" fill="#2ca6e0"/>
    <path id="パス_5" data-name="パス 5" d="M32.047,27.448a4.412,4.412,0,1,0,6.238-.164,4.412,4.412,0,0,0-6.238.164" transform="translate(28.709 12.607)" fill="#fff000"/>
    <path id="パス_6" data-name="パス 6" d="M22.94,37.043a4.412,4.412,0,1,1-6.4-6.074L12.175,26.83,1.434,38.152a5.261,5.261,0,0,0,.195,7.415L12.951,56.308,27.3,41.182Z" transform="translate(41 12.305)" fill="#f29600"/>
    <path id="パス_7" data-name="パス 7" d="M27.34,57.308a4.412,4.412,0,1,0,6.238-.164,4.412,4.412,0,0,0-6.238.164" transform="translate(30.586 0.705)" fill="#f29600"/>
    <path id="パス_8" data-name="パス 8" d="M37.085,60.4a4.412,4.412,0,1,1-6.074,6.4L26.872,71.16,38.194,81.9a5.261,5.261,0,0,0,7.415-.195L56.35,70.385,41.224,56.034Z" transform="translate(30.289 0.665)" fill="#8dc21f"/>
    <path id="パス_9" data-name="パス 9" d="M154.237,46.484a1.082,1.082,0,0,1-.653,1,2.715,2.715,0,0,1-1.27.345,5.3,5.3,0,0,1-1.85-.471,21.306,21.306,0,0,1-2.576-1.288q-1.414-.816-3.029-1.887t-3.283-2.267a45.437,45.437,0,0,1-4.571,1.378q-2.358.581-4.589.925t-4.189.508q-1.959.163-3.446.164-.545,0-1.723-.091a20.8,20.8,0,0,1-2.648-.4,22.606,22.606,0,0,1-3.029-.87,10.59,10.59,0,0,1-2.847-1.542,7.99,7.99,0,0,1-2.1-2.394,6.721,6.721,0,0,1-.816-3.41,12.318,12.318,0,0,1,1.505-5.967,21.112,21.112,0,0,1,3.9-5.1A29.789,29.789,0,0,1,122.388,21a48.012,48.012,0,0,1,5.894-3.047,37.549,37.549,0,0,1,5.478-1.9,17.642,17.642,0,0,1,4.154-.653,8.1,8.1,0,0,1,1.94.218,5.4,5.4,0,0,1,1.542.616,3.4,3.4,0,0,1,1.034.943,2.043,2.043,0,0,1,.381,1.2,3.334,3.334,0,0,1-1.07,2.485,8.551,8.551,0,0,1-2.5,1.668,14.72,14.72,0,0,1-2.866.944,11.267,11.267,0,0,1-2.158.308,2.5,2.5,0,0,1-.616-.145,1.238,1.238,0,0,1-.453-.236.552.552,0,0,1-.2-.453,1.123,1.123,0,0,1,.381-.834,3.764,3.764,0,0,1,.926-.634A8.667,8.667,0,0,1,135.392,21a7.923,7.923,0,0,0,1.034-.417q.4-.181.87-.381a6.236,6.236,0,0,0,.853-.435,4.131,4.131,0,0,0,.634-.471.677.677,0,0,0,.254-.49.572.572,0,0,0-.453-.58,3.036,3.036,0,0,0-.925-.145,15.736,15.736,0,0,0-3.555.544,33.27,33.27,0,0,0-4.752,1.6,44.8,44.8,0,0,0-5.132,2.538,26.954,26.954,0,0,0-4.679,3.374,17.272,17.272,0,0,0-3.392,4.135,9.449,9.449,0,0,0-1.306,4.824,3.484,3.484,0,0,0,.961,2.521,6.858,6.858,0,0,0,2.5,1.6,14.95,14.95,0,0,0,3.464.853,29.388,29.388,0,0,0,3.845.254,41.543,41.543,0,0,0,5.7-.417,42.332,42.332,0,0,0,5.912-1.252q-1.561-1.232-2.956-2.394t-2.412-2.086q-1.016-.925-1.614-1.541t-.6-.8a.9.9,0,0,1,.381-.78,1.323,1.323,0,0,1,.78-.272,1.681,1.681,0,0,1,.653.108q1.668.727,3.518,1.669,1.6.8,3.592,1.832t4.135,2.231a21.709,21.709,0,0,0,2.467-1.4,12.428,12.428,0,0,0,1.941-1.56,6.816,6.816,0,0,0,1.27-1.7,3.988,3.988,0,0,0,.453-1.832,3.021,3.021,0,0,0-.635-1.7,7.584,7.584,0,0,0-1.669-1.687,10.069,10.069,0,0,0-2.357-1.306,7.175,7.175,0,0,0-2.666-.526,7.374,7.374,0,0,1-1.941-.182.863.863,0,0,1-.634-.871.8.8,0,0,1,.671-.834,6.594,6.594,0,0,1,1.686-.182,15.027,15.027,0,0,1,5.024.744,10.644,10.644,0,0,1,3.411,1.886,7.326,7.326,0,0,1,1.94,2.5,6.292,6.292,0,0,1,.617,2.593,8.5,8.5,0,0,1-1.451,4.916,14.163,14.163,0,0,1-3.809,3.718q1.487.98,2.811,1.941a21.7,21.7,0,0,1,2.3,1.9,10.449,10.449,0,0,1,1.541,1.814,3.044,3.044,0,0,1,.562,1.632" transform="translate(-3.49 16.863)" fill="#401d00"/>
    <path id="パス_10" data-name="パス 10" d="M191.939,47.849a3.468,3.468,0,0,1-.9,2.544,3.172,3.172,0,0,1-2.367.912,3.814,3.814,0,0,1-2-.531,6.121,6.121,0,0,1-1.564-1.347,9.448,9.448,0,0,1-1.17-1.782,15.746,15.746,0,0,1-.8-1.849,13.7,13.7,0,0,1-.462-1.551,5.318,5.318,0,0,1-.15-.857,1.411,1.411,0,0,1,.218-.721.784.784,0,0,1,.734-.367.923.923,0,0,1,.517.163,1.657,1.657,0,0,1,.422.408,3.812,3.812,0,0,1,.313.517,2.313,2.313,0,0,1,.191.517,13.467,13.467,0,0,0,.476,1.387,10.31,10.31,0,0,0,.857,1.7,6.372,6.372,0,0,0,1.2,1.429,2.185,2.185,0,0,0,1.469.6,1.54,1.54,0,0,0,1.048-.367,1.457,1.457,0,0,0,.421-1.156,3.048,3.048,0,0,0-.2-1.156,8.974,8.974,0,0,0-.435-.926q-.231-.42-.435-.815a1.725,1.725,0,0,1-.2-.8.671.671,0,0,1,.136-.422.55.55,0,0,1,.463-.177,1.07,1.07,0,0,1,.8.517,5.934,5.934,0,0,1,.708,1.238,10.007,10.007,0,0,1,.516,1.523,5.7,5.7,0,0,1,.2,1.374" transform="translate(-31.756 6.139)" fill="#401d00"/>
    <path id="パス_11" data-name="パス 11" d="M215.472,48.675a1.26,1.26,0,0,1-.381.925,1.229,1.229,0,0,1-.9.381.706.706,0,0,1-.5-.191,2.466,2.466,0,0,1-.368-.435c-.108-.164-.209-.309-.3-.436s-.182-.19-.272-.19q-.082,0-.177.177a4.031,4.031,0,0,1-.272.422,3.628,3.628,0,0,1-.53.557,3.329,3.329,0,0,1-.953.558,8.137,8.137,0,0,1-1.523.422,12.325,12.325,0,0,1-2.258.176,11.882,11.882,0,0,1-2.285-.19,6.129,6.129,0,0,1-1.565-.5,2.542,2.542,0,0,1-.9-.694,1.264,1.264,0,0,1-.286-.762,1.686,1.686,0,0,1,.462-1.088,4.276,4.276,0,0,1,1.292-.979,8.9,8.9,0,0,1,1.959-.721,9.894,9.894,0,0,1,2.435-.286.891.891,0,0,1,.177.014.667.667,0,0,0,.122.013l.055-.055a.078.078,0,0,0,.027-.054v-.028c0-.017-.037-.045-.109-.081q-.055-.026-.571-.2t-1.306-.408q-.789-.231-1.741-.422a17.309,17.309,0,0,0-1.878-.272,2.6,2.6,0,0,1-.762-.191.579.579,0,0,1-.408-.571,1.087,1.087,0,0,1,.245-.6,1.674,1.674,0,0,1,.585-.395,2.76,2.76,0,0,1,1.1-.177,12.685,12.685,0,0,1,4.08.625,15.543,15.543,0,0,1,3.319,1.551,16.306,16.306,0,0,1,2.544,1.945,18.975,18.975,0,0,1,1.728,1.837.446.446,0,0,1,.108.327m-4.461-.517c0-.164-.272-.317-.816-.462a9.771,9.771,0,0,0-2.367-.218,11.881,11.881,0,0,0-1.8.109,6.272,6.272,0,0,0-1.061.245,1.474,1.474,0,0,0-.517.272c-.09.091-.136.154-.136.19q0,.163.408.259a7.647,7.647,0,0,0,.9.15q.572.054,1.279.054.625,0,1.347-.054t1.333-.137a8.235,8.235,0,0,0,1.02-.19c.272-.072.408-.146.408-.218" transform="translate(-39.422 6.103)" fill="#401d00"/>
    <path id="パス_12" data-name="パス 12" d="M232.215,32.389a.77.77,0,0,1-.531.707,4.957,4.957,0,0,1-1.306.367,11.775,11.775,0,0,1-1.673.137q-.9.014-1.605.014h-1.374q-.75,0-1.537-.028.652,1.524,1.292,3.1t1.17,2.979q.53,1.4.856,2.557a7.122,7.122,0,0,1,.327,1.81q0,.979-.87.979a1.458,1.458,0,0,1-.994-.49,5.928,5.928,0,0,1-.979-1.333,15.856,15.856,0,0,1-.925-1.986q-.449-1.143-.87-2.421t-.8-2.639q-.382-1.36-.707-2.667-1.008-.053-1.946-.1t-1.687-.082q-.748-.041-1.251-.1c-.336-.036-.54-.063-.612-.082-.018,0-.113-.017-.286-.054a4.2,4.2,0,0,1-.558-.164,2.22,2.22,0,0,1-.544-.285.513.513,0,0,1-.244-.422.564.564,0,0,1,.217-.395,1.723,1.723,0,0,1,.436-.245,2.435,2.435,0,0,1,.489-.136c.164-.027.282-.05.354-.068q1.306-.217,2.53-.34t2.476-.177q-.217-.924-.367-1.686t-.259-1.333c-.073-.453-.145-.853-.218-1.2a1.858,1.858,0,0,1,.082-.5.36.36,0,0,1,.381-.286.726.726,0,0,1,.571.3,2.989,2.989,0,0,1,.422.708,6.1,6.1,0,0,1,.286.8c.072.263.127.449.163.557q.164.517.395,1.17t.53,1.388q.654-.028,1.347-.027h1.429q1.387,0,2.571.081a13.655,13.655,0,0,1,2.027.272,3.855,3.855,0,0,1,1.319.517.946.946,0,0,1,.476.789" transform="translate(-44.523 12.703)" fill="#401d00"/>
    <path id="パス_13" data-name="パス 13" d="M247.63,45.167a.491.491,0,0,1-.149.381.841.841,0,0,1-.367.191,1.726,1.726,0,0,1-.544.081,1.493,1.493,0,0,1-.884-.259,2.7,2.7,0,0,1-.612-.585,6.053,6.053,0,0,1-.395-.585c-.1-.173-.177-.259-.232-.259q-.055,0-.108.272t-.109.693q-.054.422-.082.98t-.027,1.129a7.072,7.072,0,0,0,.123,1.36,6.108,6.108,0,0,1,.123,1.17.676.676,0,0,1-.191.476.784.784,0,0,1-.6.2,1.286,1.286,0,0,1-.883-.395,3.9,3.9,0,0,1-.762-1.034,8.766,8.766,0,0,1-.6-1.442q-.259-.8-.435-1.591t-.272-1.482a8.729,8.729,0,0,1-.1-1.156,2.715,2.715,0,0,1,.177-.925q.177-.49.557-.517a.884.884,0,0,1,.626.258,1.114,1.114,0,0,1,.3.367q0,.027.135.476t.286.979q.15.53.272.98a4.443,4.443,0,0,1,.122.5c0,.146.036.218.109.218q.054,0,.122-.5t.137-1.129c.044-.417.095-.8.149-1.156s.091-.558.109-.612a2.813,2.813,0,0,1,.163-.625,1.516,1.516,0,0,1,.231-.408.451.451,0,0,1,.367-.191.918.918,0,0,1,.707.218q.735.844,1.279,1.605.463.653.857,1.292a2.15,2.15,0,0,1,.395,1.02" transform="translate(-54.875 6.644)" fill="#401d00"/>
    <path id="パス_14" data-name="パス 14" d="M270.791,48.823a.489.489,0,0,1-.327.435,4.05,4.05,0,0,1-1.06.286q-.735.123-1.932.232t-2.939.272q-1.632.163-2.911.245t-2.312.081a19.456,19.456,0,0,1-2.176-.109,5.483,5.483,0,0,1-1.619-.408,2.376,2.376,0,0,1-1.02-.815,2.316,2.316,0,0,1-.354-1.334,3.808,3.808,0,0,1,.476-1.8,7.862,7.862,0,0,1,1.265-1.728,11.908,11.908,0,0,1,1.8-1.537,15.433,15.433,0,0,1,2.054-1.224,13.057,13.057,0,0,1,2.054-.817,6.394,6.394,0,0,1,1.8-.3,2.783,2.783,0,0,1,1.333.259,2.087,2.087,0,0,1,.68.557,1.492,1.492,0,0,1,.3.844,2.26,2.26,0,0,1-.49,1.347,6.417,6.417,0,0,1-1.265,1.265,13.217,13.217,0,0,1-1.714,1.115,19.307,19.307,0,0,1-1.85.9,15.206,15.206,0,0,1-1.673.6,4.619,4.619,0,0,1-1.17.218,1.935,1.935,0,0,1-.871-.177.532.532,0,0,1-.353-.476.538.538,0,0,1,.286-.476,3.179,3.179,0,0,1,.585-.286q1.849-.707,3.006-1.252a16.808,16.808,0,0,0,1.8-.953,3.482,3.482,0,0,0,.857-.693.862.862,0,0,0,.217-.476.62.62,0,0,0-.19-.422.746.746,0,0,0-.571-.2,2.925,2.925,0,0,0-.939.231,11.075,11.075,0,0,0-1.36.639q-.75.409-1.51.925a14.713,14.713,0,0,0-1.4,1.075,6.148,6.148,0,0,0-1.033,1.129,1.9,1.9,0,0,0-.395,1.06.7.7,0,0,0,.585.695,4.066,4.066,0,0,0,1.184.176c.308,0,.8-.031,1.469-.1l2.176-.2q1.17-.108,2.271-.2t1.728-.1q.545,0,1.469.027a15.218,15.218,0,0,1,1.823.164,5.7,5.7,0,0,1,1.564.449.958.958,0,0,1,.666.857" transform="translate(-60.301 6.933)" fill="#401d00"/>
    <path id="パス_15" data-name="パス 15" d="M248.347,84.319a1.649,1.649,0,0,1-.3,1.116.907.907,0,0,1-.681.327,1.361,1.361,0,0,1-.735-.2,2.09,2.09,0,0,1-.57-.53,2.487,2.487,0,0,1-.382-.761,2.9,2.9,0,0,1-.135-.871,2.3,2.3,0,0,1,.054-.476,1.849,1.849,0,0,1,.177-.49,1.048,1.048,0,0,1,.34-.381.989.989,0,0,1,.571-.15,1.22,1.22,0,0,1,.775.245,1.842,1.842,0,0,1,.5.612,3.331,3.331,0,0,1,.285.789,3.521,3.521,0,0,1,.1.775" transform="translate(-56.875 -9.645)" fill="#401d00"/>
    <path id="パス_16" data-name="パス 16" d="M254.511,67.082a1.886,1.886,0,0,1-.15.79.5.5,0,0,1-.476.327,1.059,1.059,0,0,1-.762-.286,2.043,2.043,0,0,1-.462-.653,2.881,2.881,0,0,1-.218-.707,3.5,3.5,0,0,1-.055-.476,2.382,2.382,0,0,1,.028-.327,1.543,1.543,0,0,1,.108-.381.768.768,0,0,1,.245-.313.712.712,0,0,1,.435-.122.863.863,0,0,1,.544.19,1.553,1.553,0,0,1,.408.49,2.846,2.846,0,0,1,.258.68,3.223,3.223,0,0,1,.1.788m3.237,10.665a1.874,1.874,0,0,1-.095.639,1.417,1.417,0,0,1-.218.408.66.66,0,0,1-.259.2.673.673,0,0,1-.245.054,1.038,1.038,0,0,1-.761-.462,5.519,5.519,0,0,1-.721-1.2,12.7,12.7,0,0,1-.612-1.619q-.272-.884-.476-1.741t-.313-1.565a7.61,7.61,0,0,1-.109-1.061,1.091,1.091,0,0,1,.082-.435.957.957,0,0,1,.163-.3.394.394,0,0,1,.327-.136.657.657,0,0,1,.34.109,1.478,1.478,0,0,1,.313.258c.091.1.176.2.259.313a.838.838,0,0,1,.149.272q.055.109.34.857t.639,1.687q.353.938.666,1.809t.422,1.224a2.161,2.161,0,0,1,.108.68" transform="translate(-59.604 -2.883)" fill="#401d00"/>
    <path id="パス_17" data-name="パス 17" d="M280.166,83.583a1.55,1.55,0,0,1-.122.68,1.132,1.132,0,0,1-.272.368.851.851,0,0,1-.286.163.805.805,0,0,1-.191.041,1.722,1.722,0,0,1-.815-.259,1.55,1.55,0,0,1-.68-.939,25.3,25.3,0,0,0-1.251-3.292q-.273-.625-.6-1.211a7.949,7.949,0,0,0-.681-1.034,4.64,4.64,0,0,0-.707-.734,1.155,1.155,0,0,0-.734-.286.968.968,0,0,0-.762.34c-.2.227-.345.385-.435.476a3.915,3.915,0,0,0-.6.979,15.145,15.145,0,0,1-.843,1.51,6.472,6.472,0,0,1-1.156,1.374,2.232,2.232,0,0,1-1.537.6,2.377,2.377,0,0,1-1.741-.775,7.434,7.434,0,0,1-1.292-1.8,10.783,10.783,0,0,1-.816-2.027,6.152,6.152,0,0,1-.286-1.5,1.391,1.391,0,0,1,.354-1.048.994.994,0,0,1,.653-.34.909.909,0,0,1,.722.395,5.255,5.255,0,0,1,.6.993q.285.6.544,1.292t.517,1.292a5.2,5.2,0,0,0,.544.993.8.8,0,0,0,.639.4,1.013,1.013,0,0,0,.762-.408,6.278,6.278,0,0,0,.693-1.007q.34-.6.721-1.306a8.774,8.774,0,0,1,.857-1.306,4.89,4.89,0,0,1,1.075-1.006,2.446,2.446,0,0,1,1.414-.408,2.478,2.478,0,0,1,1.483.53,7.093,7.093,0,0,1,1.36,1.347,11.822,11.822,0,0,1,1.17,1.837,20.443,20.443,0,0,1,.912,2,14.785,14.785,0,0,1,.584,1.809,5.758,5.758,0,0,1,.2,1.265" transform="translate(-64.375 -6.814)" fill="#401d00"/>
    <path id="パス_18" data-name="パス 18" d="M305.888,80.024q0,.49-.707.775a7.139,7.139,0,0,1-1.7.422q-.993.136-2.081.19t-1.823.109q-.244.026-1.156.081t-2.026.055a12.608,12.608,0,0,1-2.312-.177,4.78,4.78,0,0,1-1.469-.49,1.892,1.892,0,0,1-.775-.762,2.136,2.136,0,0,1-.232-.993,2.838,2.838,0,0,1,.462-1.469,7.151,7.151,0,0,1,1.251-1.5,12.686,12.686,0,0,1,1.81-1.387,15.8,15.8,0,0,1,2.163-1.156,15.048,15.048,0,0,1,2.3-.8,8.74,8.74,0,0,1,2.19-.3,3.342,3.342,0,0,1,1.374.272,1,1,0,0,1,.612,1.007,1.824,1.824,0,0,1-.5,1.224,5.384,5.384,0,0,1-1.17.993,7.428,7.428,0,0,1-1.306.666,3.061,3.061,0,0,1-.885.245.764.764,0,0,1-.6-.19.65.65,0,0,1-.163-.435.693.693,0,0,1,.041-.245A.328.328,0,0,1,299.3,76q.327-.217.68-.462t.653-.476a4.129,4.129,0,0,0,.49-.435.576.576,0,0,0,.191-.313c0-.109-.118-.164-.354-.164a4.148,4.148,0,0,0-1.17.218,13.173,13.173,0,0,0-1.524.585q-.816.367-1.632.829a17.107,17.107,0,0,0-1.483.938,6.4,6.4,0,0,0-1.074.939,1.328,1.328,0,0,0-.408.817.424.424,0,0,0,.313.435,4.173,4.173,0,0,0,1.183.109q1.306,0,2.244-.041t1.769-.081q.829-.041,1.713-.082T303,78.772a3.726,3.726,0,0,1,.966.136,5.4,5.4,0,0,1,.925.34,4.89,4.89,0,0,1,.707.408c.191.136.286.259.286.367" transform="translate(-75.234 -5.948)" fill="#401d00"/>
    <path id="パス_19" data-name="パス 19" d="M118.134,79.985v3.163h-.653V79.985h-.363v-.6h.363V77.746a1.3,1.3,0,0,1,.363-1.06,1.168,1.168,0,0,1,.752-.245,1.268,1.268,0,0,1,.462.082v.634a1.188,1.188,0,0,0-.426-.081.456.456,0,0,0-.417.2,1.128,1.128,0,0,0-.082.544v1.567h.925v.6Z" transform="translate(-5.684 -7.47)" fill="#401d00"/>
    <path id="パス_20" data-name="パス 20" d="M121.191,83.174a1.994,1.994,0,1,1,1.994,1.976,1.931,1.931,0,0,1-1.994-1.976m.671,0a1.326,1.326,0,1,0,1.323-1.4,1.3,1.3,0,0,0-1.323,1.4" transform="translate(-7.307 -9.362)" fill="#401d00"/>
    <path id="パス_21" data-name="パス 21" d="M129.733,81.279h.652v.408a1.047,1.047,0,0,1,.852-.5,1.375,1.375,0,0,1,.58.154l-.309.589a.67.67,0,0,0-.381-.127.632.632,0,0,0-.525.236,1.622,1.622,0,0,0-.218,1.015v1.985h-.652Z" transform="translate(-10.712 -9.362)" fill="#401d00"/>
    <path id="パス_22" data-name="パス 22" d="M138.535,84.747,136.8,81.339h.743l1.332,2.692,1.224-2.692h.725l-2.765,5.846h-.725Z" transform="translate(-13.53 -9.422)" fill="#401d00"/>
    <path id="パス_23" data-name="パス 23" d="M144.286,83.174a1.994,1.994,0,1,1,1.994,1.976,1.931,1.931,0,0,1-1.994-1.976m.671,0a1.325,1.325,0,1,0,1.323-1.4,1.3,1.3,0,0,0-1.323,1.4" transform="translate(-16.513 -9.362)" fill="#401d00"/>
    <path id="パス_24" data-name="パス 24" d="M153.435,83.533a1.277,1.277,0,0,0,.182.806.9.9,0,0,0,1.323,0,1.281,1.281,0,0,0,.181-.806V81.34h.653v2.266a1.5,1.5,0,0,1-.345,1.133,1.642,1.642,0,0,1-2.3,0,1.494,1.494,0,0,1-.344-1.133V81.34h.652Z" transform="translate(-19.9 -9.422)" fill="#401d00"/>
    <path id="パス_25" data-name="パス 25" d="M160.013,81.279h.652v.408a1.047,1.047,0,0,1,.853-.5,1.374,1.374,0,0,1,.58.154l-.308.589a.673.673,0,0,0-.381-.127.632.632,0,0,0-.525.236,1.622,1.622,0,0,0-.218,1.015v1.985h-.652Z" transform="translate(-22.781 -9.362)" fill="#401d00"/>
    <path id="パス_26" data-name="パス 26" d="M168.642,83.215h-.653V76.607h.653v3.371a1.617,1.617,0,0,1,1.287-.616,1.862,1.862,0,0,1,1.831,1.994,1.83,1.83,0,0,1-1.8,1.967,1.6,1.6,0,0,1-1.314-.634Zm2.447-1.858a1.29,1.29,0,0,0-1.233-1.414,1.306,1.306,0,0,0-1.251,1.4,1.286,1.286,0,0,0,1.26,1.4,1.266,1.266,0,0,0,1.224-1.386" transform="translate(-25.961 -7.536)" fill="#401d00"/>
    <path id="パス_27" data-name="パス 27" d="M179.381,84.08a2.241,2.241,0,0,1-.462.607,1.823,1.823,0,0,1-1.25.462,1.8,1.8,0,0,1-1.858-1.967,1.823,1.823,0,0,1,1.822-1.994,1.682,1.682,0,0,1,1.423.689,2.526,2.526,0,0,1,.354,1.414h-2.928a1.2,1.2,0,0,0,1.2,1.277,1.142,1.142,0,0,0,.77-.272,1.505,1.505,0,0,0,.39-.517Zm-.643-1.332a1.126,1.126,0,0,0-1.106-.978,1.144,1.144,0,0,0-1.106.978Z" transform="translate(-29.078 -9.362)" fill="#401d00"/>
    <path id="パス_28" data-name="パス 28" d="M185.094,82.149a.577.577,0,0,0-.526-.38.415.415,0,0,0-.453.426c0,.272.182.354.607.535a2.29,2.29,0,0,1,.943.58.893.893,0,0,1,.2.608,1.2,1.2,0,0,1-1.3,1.232,1.344,1.344,0,0,1-1.314-.96l.562-.236a.85.85,0,0,0,.761.616.584.584,0,0,0,.617-.6c0-.354-.254-.471-.607-.625a2.449,2.449,0,0,1-.915-.553.816.816,0,0,1-.173-.553,1.011,1.011,0,0,1,1.1-1.051,1.085,1.085,0,0,1,1.033.68Z" transform="translate(-32.045 -9.362)" fill="#401d00"/>
    <path id="パス_29" data-name="パス 29" d="M189.741,81.037V84.2h-.652V81.037h-.4v-.6h.4V79.079h.652v1.359h.653v.6Z" transform="translate(-34.213 -8.521)" fill="#401d00"/>
    <rect id="長方形_2" data-name="長方形 2" width="0.652" height="6.607" transform="translate(158.912 69.072)" fill="#401d00"/>
    <path id="パス_30" data-name="パス 30" d="M199.652,78.2a.462.462,0,1,1-.462.463.465.465,0,0,1,.462-.463m.327,5.647h-.653V80.089h.653Z" transform="translate(-38.397 -8.172)" fill="#401d00"/>
    <path id="パス_31" data-name="パス 31" d="M203.267,79.985v3.163h-.653V79.985h-.363v-.6h.363V77.746a1.3,1.3,0,0,1,.363-1.06,1.169,1.169,0,0,1,.752-.245,1.258,1.258,0,0,1,.462.082v.634a1.185,1.185,0,0,0-.426-.081.456.456,0,0,0-.417.2,1.128,1.128,0,0,0-.082.544v1.567h.924v.6Z" transform="translate(-39.618 -7.47)" fill="#401d00"/>
    <path id="パス_32" data-name="パス 32" d="M209.929,84.08a2.253,2.253,0,0,1-.462.607,1.824,1.824,0,0,1-1.25.462,1.8,1.8,0,0,1-1.858-1.967,1.823,1.823,0,0,1,1.822-1.994,1.683,1.683,0,0,1,1.423.689,2.526,2.526,0,0,1,.354,1.414h-2.927a1.2,1.2,0,0,0,1.2,1.277A1.143,1.143,0,0,0,209,84.3a1.5,1.5,0,0,0,.389-.517Zm-.643-1.332a1.126,1.126,0,0,0-1.106-.978,1.144,1.144,0,0,0-1.106.978Z" transform="translate(-41.255 -9.362)" fill="#401d00"/>
    <path id="パス_33" data-name="パス 33" d="M215.631,82.149a.576.576,0,0,0-.526-.38.415.415,0,0,0-.453.426c0,.272.182.354.607.535a2.291,2.291,0,0,1,.942.58.89.89,0,0,1,.2.608,1.2,1.2,0,0,1-1.3,1.232,1.344,1.344,0,0,1-1.315-.96l.562-.236a.851.851,0,0,0,.761.616.584.584,0,0,0,.616-.6c0-.354-.254-.471-.607-.625a2.449,2.449,0,0,1-.915-.553.816.816,0,0,1-.172-.553,1.011,1.011,0,0,1,1.1-1.051,1.085,1.085,0,0,1,1.033.68Z" transform="translate(-44.218 -9.362)" fill="#401d00"/>
    <path id="パス_34" data-name="パス 34" d="M220.271,81.037V84.2h-.653V81.037h-.4v-.6h.4V79.079h.653v1.359h.653v.6Z" transform="translate(-46.382 -8.521)" fill="#401d00"/>
    <path id="パス_35" data-name="パス 35" d="M224.677,84.747l-1.731-3.408h.743l1.333,2.692,1.223-2.692h.725l-2.765,5.846h-.725Z" transform="translate(-47.867 -9.422)" fill="#401d00"/>
    <rect id="長方形_3" data-name="長方形 3" width="0.653" height="6.607" transform="translate(179.979 69.072)" fill="#401d00"/>
    <path id="パス_36" data-name="パス 36" d="M237.669,84.08a2.227,2.227,0,0,1-.462.607,1.822,1.822,0,0,1-1.25.462,1.8,1.8,0,0,1-1.858-1.967,1.823,1.823,0,0,1,1.822-1.994,1.682,1.682,0,0,1,1.423.689,2.526,2.526,0,0,1,.354,1.414H234.77a1.2,1.2,0,0,0,1.2,1.277,1.142,1.142,0,0,0,.77-.272,1.5,1.5,0,0,0,.39-.517Zm-.643-1.332a1.126,1.126,0,0,0-1.106-.978,1.143,1.143,0,0,0-1.106.978Z" transform="translate(-52.313 -9.362)" fill="#401d00"/>
  </g>
</svg>
