<svg xmlns="http://www.w3.org/2000/svg" width="396.672" height="127.586" viewBox="0 0 396.672 127.586">
  <g id="グループ_11" data-name="グループ 11" transform="translate(-63 -47)">
    <path id="パス_1" data-name="パス 1" d="M58.508,63.5a9.229,9.229,0,1,0,13.048-.343,9.228,9.228,0,0,0-13.048.343" transform="translate(77.433 62.633)" fill="#8dc21f"/>
    <path id="パス_2" data-name="パス 2" d="M56.032,57.226l9.125,8.657a9.229,9.229,0,0,1,13.39,12.7l9.123,8.655,22.467-23.679a11,11,0,0,0-.408-15.508L86.048,25.588Z" transform="translate(77.448 53.598)" fill="#2ca6e0"/>
    <path id="パス_3" data-name="パス 3" d="M48,3.406,25.537,27.087,57.175,57.1l8.657-9.125a9.229,9.229,0,1,1,12.7-13.39l8.655-9.123L63.512,3A11,11,0,0,0,48,3.406" transform="translate(69.585 47)" fill="#fff000"/>
    <path id="パス_4" data-name="パス 4" d="M63.16,33.7a9.229,9.229,0,1,0,13.048-.343A9.228,9.228,0,0,0,63.16,33.7" transform="translate(78.633 54.949)" fill="#2ca6e0"/>
    <path id="パス_5" data-name="パス 5" d="M33.369,28.95a9.229,9.229,0,1,0,13.048-.343,9.228,9.228,0,0,0-13.048.343" transform="translate(70.951 53.723)" fill="#fff000"/>
    <path id="パス_6" data-name="パス 6" d="M47.98,48.191a9.229,9.229,0,1,1-13.39-12.7L25.465,26.83,3,50.51a11,11,0,0,0,.408,15.508l23.68,22.467L57.1,56.848Z" transform="translate(63 53.918)" fill="#f29600"/>
    <path id="パス_8" data-name="パス 8" d="M48.233,65.157a9.229,9.229,0,1,1-12.7,13.39l-8.657,9.125,23.68,22.467a11,11,0,0,0,15.508-.408L88.527,86.05,56.89,56.034Z" transform="translate(69.929 61.449)" fill="#8dc21f"/>
    <path id="パス_9" data-name="パス 9" d="M200.762,80.418A2.262,2.262,0,0,1,199.4,82.5a5.679,5.679,0,0,1-2.655.722,11.079,11.079,0,0,1-3.869-.986,44.563,44.563,0,0,1-5.387-2.694q-2.958-1.708-6.335-3.946t-6.867-4.741a95.034,95.034,0,0,1-9.56,2.883q-4.932,1.215-9.6,1.935t-8.762,1.062q-4.1.341-7.208.342-1.14,0-3.6-.19a43.511,43.511,0,0,1-5.538-.835,47.283,47.283,0,0,1-6.336-1.82,22.149,22.149,0,0,1-5.955-3.225,16.713,16.713,0,0,1-4.4-5.006,14.057,14.057,0,0,1-1.707-7.132,25.763,25.763,0,0,1,3.148-12.48,44.157,44.157,0,0,1,8.156-10.66,62.306,62.306,0,0,1,11.229-8.611,100.418,100.418,0,0,1,12.328-6.372,78.536,78.536,0,0,1,11.457-3.984,36.9,36.9,0,0,1,8.688-1.366,16.932,16.932,0,0,1,4.058.457,11.283,11.283,0,0,1,3.225,1.289,7.121,7.121,0,0,1,2.162,1.972,4.273,4.273,0,0,1,.8,2.5,6.973,6.973,0,0,1-2.238,5.2,17.885,17.885,0,0,1-5.235,3.489,30.788,30.788,0,0,1-5.994,1.974,23.565,23.565,0,0,1-4.514.644,5.23,5.23,0,0,1-1.289-.3,2.589,2.589,0,0,1-.948-.493,1.155,1.155,0,0,1-.418-.948,2.349,2.349,0,0,1,.8-1.745,7.872,7.872,0,0,1,1.936-1.327,18.127,18.127,0,0,1,2.389-.987,16.574,16.574,0,0,0,2.164-.872q.832-.379,1.82-.8a13.044,13.044,0,0,0,1.784-.911,8.641,8.641,0,0,0,1.327-.985,1.416,1.416,0,0,0,.531-1.025,1.2,1.2,0,0,0-.948-1.214,6.349,6.349,0,0,0-1.935-.3,32.912,32.912,0,0,0-7.435,1.137,69.587,69.587,0,0,0-9.94,3.34A93.694,93.694,0,0,0,137.98,30.8a56.376,56.376,0,0,0-9.787,7.057A36.126,36.126,0,0,0,121.1,46.5a19.764,19.764,0,0,0-2.731,10.091,7.287,7.287,0,0,0,2.01,5.273,14.344,14.344,0,0,0,5.235,3.338,31.269,31.269,0,0,0,7.245,1.784,61.466,61.466,0,0,0,8.043.531,86.89,86.89,0,0,0,11.912-.873,88.54,88.54,0,0,0,12.366-2.618q-3.264-2.577-6.184-5.006T153.95,54.66q-2.124-1.934-3.376-3.224t-1.252-1.669a1.882,1.882,0,0,1,.8-1.631,2.766,2.766,0,0,1,1.631-.569,3.516,3.516,0,0,1,1.365.226q3.489,1.521,7.358,3.491,3.338,1.67,7.512,3.831t8.649,4.667a45.406,45.406,0,0,0,5.16-2.921,25.993,25.993,0,0,0,4.059-3.263,14.255,14.255,0,0,0,2.655-3.566,8.341,8.341,0,0,0,.948-3.831,6.319,6.319,0,0,0-1.328-3.566,15.862,15.862,0,0,0-3.491-3.528,21.06,21.06,0,0,0-4.931-2.731,15.007,15.007,0,0,0-5.576-1.1,15.422,15.422,0,0,1-4.059-.38,1.8,1.8,0,0,1-1.327-1.821,1.675,1.675,0,0,1,1.4-1.745,13.791,13.791,0,0,1,3.527-.38,31.429,31.429,0,0,1,10.508,1.556,22.262,22.262,0,0,1,7.133,3.945,15.324,15.324,0,0,1,4.058,5.235,13.16,13.16,0,0,1,1.291,5.424,17.78,17.78,0,0,1-3.035,10.282,29.623,29.623,0,0,1-7.966,7.776q3.109,2.049,5.879,4.059a45.4,45.4,0,0,1,4.819,3.984A21.855,21.855,0,0,1,199.586,77a6.368,6.368,0,0,1,1.176,3.414" transform="translate(91.781 50.97)" fill="#fff"/>
    <path id="パス_10" data-name="パス 10" d="M202.214,53.907a7.254,7.254,0,0,1-1.878,5.321,6.634,6.634,0,0,1-4.95,1.907,7.978,7.978,0,0,1-4.184-1.111,12.8,12.8,0,0,1-3.27-2.816,19.76,19.76,0,0,1-2.448-3.727,32.933,32.933,0,0,1-1.679-3.868,28.665,28.665,0,0,1-.966-3.244,11.124,11.124,0,0,1-.313-1.792,2.952,2.952,0,0,1,.455-1.508,1.641,1.641,0,0,1,1.536-.769,1.931,1.931,0,0,1,1.082.341,3.465,3.465,0,0,1,.882.854,7.975,7.975,0,0,1,.654,1.082,4.839,4.839,0,0,1,.4,1.081,28.165,28.165,0,0,0,.995,2.9,21.563,21.563,0,0,0,1.792,3.556,13.328,13.328,0,0,0,2.5,2.989,4.57,4.57,0,0,0,3.073,1.252,3.222,3.222,0,0,0,2.191-.769,3.048,3.048,0,0,0,.881-2.418,6.376,6.376,0,0,0-.426-2.419,18.77,18.77,0,0,0-.911-1.936q-.483-.879-.909-1.706a3.609,3.609,0,0,1-.428-1.679,1.4,1.4,0,0,1,.284-.882,1.15,1.15,0,0,1,.969-.37,2.238,2.238,0,0,1,1.678,1.08,12.411,12.411,0,0,1,1.48,2.59,20.929,20.929,0,0,1,1.079,3.186,11.917,11.917,0,0,1,.428,2.873" transform="translate(110.066 57.907)" fill="#fff"/>
    <path id="パス_11" data-name="パス 11" d="M230.439,55.535a2.634,2.634,0,0,1-.8,1.935,2.571,2.571,0,0,1-1.878.8,1.476,1.476,0,0,1-1.052-.4,5.159,5.159,0,0,1-.77-.909c-.226-.342-.436-.645-.625-.912s-.38-.4-.569-.4q-.172,0-.37.37a8.428,8.428,0,0,1-.57.883,7.587,7.587,0,0,1-1.109,1.165,6.962,6.962,0,0,1-1.992,1.167,17.019,17.019,0,0,1-3.185.883,25.778,25.778,0,0,1-4.723.369,24.851,24.851,0,0,1-4.78-.4,12.819,12.819,0,0,1-3.273-1.053,5.318,5.318,0,0,1-1.877-1.452,2.645,2.645,0,0,1-.6-1.594,3.526,3.526,0,0,1,.967-2.275,8.944,8.944,0,0,1,2.7-2.048,18.617,18.617,0,0,1,4.1-1.508,20.693,20.693,0,0,1,5.093-.6,1.864,1.864,0,0,1,.37.029,1.4,1.4,0,0,0,.255.028l.115-.114a.164.164,0,0,0,.057-.113v-.058c0-.036-.077-.093-.228-.17q-.115-.055-1.2-.428t-2.731-.853q-1.651-.483-3.642-.882a36.2,36.2,0,0,0-3.927-.569,5.446,5.446,0,0,1-1.594-.4,1.21,1.21,0,0,1-.853-1.195,2.274,2.274,0,0,1,.512-1.252,3.5,3.5,0,0,1,1.224-.825,5.773,5.773,0,0,1,2.3-.37,26.531,26.531,0,0,1,8.535,1.308,32.509,32.509,0,0,1,6.942,3.244A34.1,34.1,0,0,1,226.6,51.01a39.686,39.686,0,0,1,3.614,3.841.934.934,0,0,1,.226.683m-9.331-1.082c0-.342-.57-.663-1.707-.967a20.438,20.438,0,0,0-4.951-.455,24.85,24.85,0,0,0-3.756.228,13.118,13.118,0,0,0-2.219.512,3.082,3.082,0,0,0-1.082.57c-.189.19-.284.322-.284.4q0,.342.853.541a16,16,0,0,0,1.878.313q1.2.113,2.675.113,1.307,0,2.816-.113t2.789-.286a17.225,17.225,0,0,0,2.133-.4c.57-.151.854-.3.854-.455" transform="translate(115.026 57.931)" fill="#fff"/>
    <path id="パス_12" data-name="パス 12" d="M251.489,39.546a1.61,1.61,0,0,1-1.111,1.479,10.368,10.368,0,0,1-2.731.767,24.628,24.628,0,0,1-3.5.286q-1.877.03-3.357.029h-2.873q-1.568,0-3.215-.058,1.364,3.187,2.7,6.488t2.447,6.23q1.109,2.93,1.791,5.348a14.9,14.9,0,0,1,.683,3.785q0,2.047-1.82,2.048a3.049,3.049,0,0,1-2.078-1.024,12.4,12.4,0,0,1-2.048-2.789,33.168,33.168,0,0,1-1.935-4.153q-.94-2.391-1.82-5.064T230.946,47.4q-.8-2.845-1.479-5.577-2.107-.111-4.069-.2t-3.528-.171q-1.564-.085-2.616-.2c-.7-.075-1.13-.132-1.28-.171-.038,0-.236-.036-.6-.113a8.775,8.775,0,0,1-1.167-.342,4.644,4.644,0,0,1-1.138-.6,1.072,1.072,0,0,1-.511-.883,1.18,1.18,0,0,1,.454-.825,3.6,3.6,0,0,1,.912-.512,5.092,5.092,0,0,1,1.023-.284c.342-.057.59-.1.74-.142q2.732-.455,5.292-.711t5.179-.371q-.455-1.932-.767-3.527t-.541-2.789c-.152-.947-.3-1.784-.455-2.5a3.887,3.887,0,0,1,.171-1.054.754.754,0,0,1,.8-.6,1.518,1.518,0,0,1,1.195.626,6.251,6.251,0,0,1,.882,1.481,12.754,12.754,0,0,1,.6,1.678c.151.55.265.938.341,1.166q.343,1.081.825,2.447t1.109,2.9q1.368-.058,2.816-.057h2.989q2.9,0,5.377.17a28.562,28.562,0,0,1,4.239.569,8.063,8.063,0,0,1,2.76,1.082,1.978,1.978,0,0,1,1,1.65" transform="translate(118.326 53.661)" fill="#fff"/>
    <path id="パス_13" data-name="パス 13" d="M255.381,49.681a1.026,1.026,0,0,1-.312.8,1.758,1.758,0,0,1-.769.4,3.611,3.611,0,0,1-1.138.17,3.123,3.123,0,0,1-1.849-.541,5.636,5.636,0,0,1-1.28-1.223,12.656,12.656,0,0,1-.825-1.223c-.21-.362-.371-.541-.484-.541q-.115,0-.226.569t-.229,1.45q-.113.883-.171,2.049t-.057,2.361a14.794,14.794,0,0,0,.257,2.845,12.776,12.776,0,0,1,.257,2.447,1.414,1.414,0,0,1-.4,1,1.641,1.641,0,0,1-1.253.426,2.689,2.689,0,0,1-1.848-.825,8.15,8.15,0,0,1-1.594-2.162,18.335,18.335,0,0,1-1.253-3.016q-.541-1.677-.909-3.328t-.57-3.1a18.259,18.259,0,0,1-.2-2.419,5.679,5.679,0,0,1,.37-1.935q.37-1.025,1.166-1.08a1.849,1.849,0,0,1,1.309.54A2.329,2.329,0,0,1,244,44.1q0,.057.283,1t.6,2.048q.313,1.109.57,2.049a9.292,9.292,0,0,1,.255,1.053c0,.3.076.455.229.455q.113,0,.255-1.053t.286-2.362c.093-.872.2-1.678.312-2.418s.19-1.167.229-1.281a5.884,5.884,0,0,1,.341-1.308,3.171,3.171,0,0,1,.483-.854.944.944,0,0,1,.768-.4,1.919,1.919,0,0,1,1.479.455q1.538,1.766,2.674,3.357.968,1.366,1.792,2.7a4.5,4.5,0,0,1,.825,2.133" transform="translate(125.023 57.58)" fill="#fff"/>
    <path id="パス_14" data-name="パス 14" d="M288.965,58.118a1.024,1.024,0,0,1-.683.911,8.471,8.471,0,0,1-2.218.6q-1.538.257-4.04.484t-6.147.569q-3.413.342-6.088.513t-4.836.17a40.692,40.692,0,0,1-4.552-.228,11.468,11.468,0,0,1-3.386-.854,4.97,4.97,0,0,1-2.133-1.706,4.844,4.844,0,0,1-.74-2.79,7.964,7.964,0,0,1,.995-3.755,16.443,16.443,0,0,1,2.647-3.614,24.9,24.9,0,0,1,3.756-3.214,32.281,32.281,0,0,1,4.3-2.561,27.31,27.31,0,0,1,4.3-1.708,13.373,13.373,0,0,1,3.755-.625,5.821,5.821,0,0,1,2.789.541,4.366,4.366,0,0,1,1.423,1.166,3.121,3.121,0,0,1,.626,1.765A4.727,4.727,0,0,1,277.7,46.6a13.423,13.423,0,0,1-2.645,2.647,27.645,27.645,0,0,1-3.585,2.332,40.381,40.381,0,0,1-3.869,1.878,31.806,31.806,0,0,1-3.5,1.252,9.662,9.662,0,0,1-2.448.455,4.048,4.048,0,0,1-1.821-.37,1.114,1.114,0,0,1-.738-1,1.125,1.125,0,0,1,.6-.995,6.648,6.648,0,0,1,1.223-.6q3.868-1.479,6.288-2.618a35.155,35.155,0,0,0,3.756-1.992,7.284,7.284,0,0,0,1.792-1.45,1.8,1.8,0,0,0,.454-1,1.3,1.3,0,0,0-.4-.882,1.561,1.561,0,0,0-1.195-.426,6.117,6.117,0,0,0-1.964.483,23.164,23.164,0,0,0-2.844,1.337q-1.568.855-3.158,1.935a30.777,30.777,0,0,0-2.932,2.249,12.861,12.861,0,0,0-2.161,2.361,3.973,3.973,0,0,0-.825,2.218,1.464,1.464,0,0,0,1.224,1.453,8.506,8.506,0,0,0,2.475.369c.644,0,1.668-.064,3.072-.2l4.552-.426q2.447-.226,4.751-.426t3.614-.2q1.14,0,3.073.057a31.829,31.829,0,0,1,3.813.342,11.926,11.926,0,0,1,3.272.938,2,2,0,0,1,1.394,1.792" transform="translate(128.533 57.394)" fill="#fff"/>
    <path id="パス_15" data-name="パス 15" d="M251.405,86.962a3.449,3.449,0,0,1-.624,2.333,1.9,1.9,0,0,1-1.424.683,2.846,2.846,0,0,1-1.537-.428,4.372,4.372,0,0,1-1.192-1.109,5.2,5.2,0,0,1-.8-1.592,6.066,6.066,0,0,1-.282-1.821,4.8,4.8,0,0,1,.112-1,3.868,3.868,0,0,1,.371-1.024,2.193,2.193,0,0,1,.711-.8,2.068,2.068,0,0,1,1.2-.313,2.553,2.553,0,0,1,1.621.512,3.854,3.854,0,0,1,1.054,1.281,6.967,6.967,0,0,1,.6,1.65,7.365,7.365,0,0,1,.2,1.621" transform="translate(126.316 68.118)" fill="#fff"/>
    <path id="パス_16" data-name="パス 16" d="M256.828,69.427a3.944,3.944,0,0,1-.313,1.652,1.038,1.038,0,0,1-.995.683,2.214,2.214,0,0,1-1.594-.6,4.274,4.274,0,0,1-.967-1.365,6.026,6.026,0,0,1-.455-1.479,7.316,7.316,0,0,1-.115-1,4.987,4.987,0,0,1,.058-.683,3.227,3.227,0,0,1,.226-.8,1.605,1.605,0,0,1,.513-.655,1.49,1.49,0,0,1,.911-.255,1.8,1.8,0,0,1,1.137.4,3.249,3.249,0,0,1,.854,1.025,5.952,5.952,0,0,1,.54,1.423,6.742,6.742,0,0,1,.2,1.649M263.6,91.734a3.921,3.921,0,0,1-.2,1.337,2.965,2.965,0,0,1-.455.853,1.38,1.38,0,0,1-.541.428,1.408,1.408,0,0,1-.512.113A2.171,2.171,0,0,1,260.3,93.5a11.542,11.542,0,0,1-1.508-2.5,26.566,26.566,0,0,1-1.281-3.386q-.57-1.849-1-3.642t-.654-3.273a15.923,15.923,0,0,1-.228-2.219,2.281,2.281,0,0,1,.171-.909,2,2,0,0,1,.341-.626.824.824,0,0,1,.683-.284,1.373,1.373,0,0,1,.712.228,3.093,3.093,0,0,1,.654.54c.19.21.369.428.541.655a1.752,1.752,0,0,1,.312.569q.115.228.712,1.792t1.337,3.528q.738,1.962,1.394,3.784t.883,2.561a4.521,4.521,0,0,1,.226,1.423" transform="translate(128.081 63.744)" fill="#fff"/>
    <path id="パス_17" data-name="パス 17" d="M297.419,93.175a3.241,3.241,0,0,1-.255,1.421,2.369,2.369,0,0,1-.57.77,1.779,1.779,0,0,1-.6.341,1.683,1.683,0,0,1-.4.086,3.6,3.6,0,0,1-1.706-.541,3.243,3.243,0,0,1-1.423-1.964,52.9,52.9,0,0,0-2.618-6.886q-.57-1.308-1.252-2.532a16.627,16.627,0,0,0-1.424-2.162,9.7,9.7,0,0,0-1.479-1.536,2.416,2.416,0,0,0-1.536-.6,2.024,2.024,0,0,0-1.594.712c-.419.474-.721.805-.911.995a8.187,8.187,0,0,0-1.251,2.048,31.681,31.681,0,0,1-1.764,3.158,13.537,13.537,0,0,1-2.419,2.873,4.667,4.667,0,0,1-3.215,1.253,4.972,4.972,0,0,1-3.641-1.621,15.549,15.549,0,0,1-2.7-3.756A22.556,22.556,0,0,1,264.957,81a12.869,12.869,0,0,1-.6-3.13,2.91,2.91,0,0,1,.74-2.191,2.079,2.079,0,0,1,1.365-.711,1.9,1.9,0,0,1,1.509.825,10.991,10.991,0,0,1,1.252,2.077q.6,1.253,1.137,2.7t1.082,2.7a10.889,10.889,0,0,0,1.138,2.077,1.666,1.666,0,0,0,1.337.826,2.118,2.118,0,0,0,1.594-.854,13.129,13.129,0,0,0,1.45-2.106q.711-1.249,1.508-2.731a18.35,18.35,0,0,1,1.792-2.732,10.227,10.227,0,0,1,2.248-2.1,5.115,5.115,0,0,1,2.958-.854,5.183,5.183,0,0,1,3.1,1.109,14.837,14.837,0,0,1,2.845,2.816,24.727,24.727,0,0,1,2.447,3.842,42.756,42.756,0,0,1,1.907,4.182,30.922,30.922,0,0,1,1.221,3.784,12.042,12.042,0,0,1,.428,2.647" transform="translate(131.167 66.287)" fill="#fff"/>
    <path id="パス_18" data-name="パス 18" d="M321.479,88.1q0,1.025-1.479,1.621a14.931,14.931,0,0,1-3.557.883q-2.077.285-4.352.4t-3.814.229q-.509.055-2.419.17t-4.238.114a26.372,26.372,0,0,1-4.837-.371,10,10,0,0,1-3.073-1.024,3.958,3.958,0,0,1-1.621-1.594,4.468,4.468,0,0,1-.484-2.077,5.936,5.936,0,0,1,.967-3.072,14.957,14.957,0,0,1,2.616-3.131,26.538,26.538,0,0,1,3.785-2.9,33.046,33.046,0,0,1,4.525-2.419,31.476,31.476,0,0,1,4.807-1.678,18.281,18.281,0,0,1,4.581-.626,6.989,6.989,0,0,1,2.873.569,2.1,2.1,0,0,1,1.28,2.106,3.814,3.814,0,0,1-1.052,2.56,11.261,11.261,0,0,1-2.448,2.078,15.534,15.534,0,0,1-2.731,1.394,6.4,6.4,0,0,1-1.85.512,1.6,1.6,0,0,1-1.252-.4,1.36,1.36,0,0,1-.341-.911,1.449,1.449,0,0,1,.086-.512.686.686,0,0,1,.255-.342q.683-.455,1.423-.967t1.366-1a8.637,8.637,0,0,0,1.024-.909,1.206,1.206,0,0,0,.4-.654c0-.229-.247-.342-.74-.342a8.676,8.676,0,0,0-2.447.455,27.555,27.555,0,0,0-3.187,1.224q-1.708.768-3.414,1.735a35.773,35.773,0,0,0-3.1,1.962,13.38,13.38,0,0,0-2.247,1.964,2.778,2.778,0,0,0-.854,1.708.886.886,0,0,0,.655.909,8.729,8.729,0,0,0,2.474.229q2.732,0,4.694-.087t3.7-.17q1.734-.085,3.584-.171t4.411-.086a7.794,7.794,0,0,1,2.02.284,11.3,11.3,0,0,1,1.935.712,10.229,10.229,0,0,1,1.479.854c.4.284.6.541.6.767" transform="translate(138.193 65.727)" fill="#fff"/>
    <path id="パス_19" data-name="パス 19" d="M119.242,83.854V90.47h-1.365V83.854h-.758V82.6h.758V79.171a2.717,2.717,0,0,1,.758-2.216,2.443,2.443,0,0,1,1.574-.513,2.652,2.652,0,0,1,.967.171v1.327a2.485,2.485,0,0,0-.892-.17.954.954,0,0,0-.872.416,2.359,2.359,0,0,0-.171,1.138V82.6h1.935v1.252Z" transform="translate(93.2 66.711)" fill="#fff"/>
    <path id="パス_20" data-name="パス 20" d="M121.191,85.34a4.171,4.171,0,1,1,4.17,4.132,4.039,4.039,0,0,1-4.17-4.132m1.4,0a2.773,2.773,0,1,0,2.767-2.938,2.727,2.727,0,0,0-2.767,2.938" transform="translate(94.25 67.935)" fill="#fff"/>
    <path id="パス_21" data-name="パス 21" d="M129.733,81.378H131.1v.853a2.189,2.189,0,0,1,1.782-1.042,2.875,2.875,0,0,1,1.214.322l-.645,1.231a1.4,1.4,0,0,0-.8-.265,1.322,1.322,0,0,0-1.1.493,3.392,3.392,0,0,0-.457,2.123v4.152h-1.364Z" transform="translate(96.453 67.935)" fill="#fff"/>
    <path id="パス_22" data-name="パス 22" d="M140.425,88.467,136.8,81.339h1.555l2.786,5.631,2.56-5.631h1.517l-5.782,12.228h-1.517Z" transform="translate(98.276 67.974)" fill="#fff"/>
    <path id="パス_23" data-name="パス 23" d="M144.286,85.34a4.171,4.171,0,1,1,4.17,4.132,4.038,4.038,0,0,1-4.17-4.132m1.4,0a2.772,2.772,0,1,0,2.767-2.938,2.725,2.725,0,0,0-2.767,2.938" transform="translate(100.205 67.935)" fill="#fff"/>
    <path id="パス_24" data-name="パス 24" d="M154.147,85.927a2.671,2.671,0,0,0,.38,1.687,1.882,1.882,0,0,0,2.767,0,2.679,2.679,0,0,0,.379-1.687V81.34h1.366v4.74a3.13,3.13,0,0,1-.721,2.37,3.435,3.435,0,0,1-4.815,0,3.124,3.124,0,0,1-.719-2.37V81.34h1.364Z" transform="translate(102.396 67.974)" fill="#fff"/>
    <path id="パス_25" data-name="パス 25" d="M160.013,81.378h1.364v.853a2.19,2.19,0,0,1,1.784-1.042,2.874,2.874,0,0,1,1.213.322l-.644,1.231a1.407,1.407,0,0,0-.8-.265,1.322,1.322,0,0,0-1.1.493,3.392,3.392,0,0,0-.457,2.123v4.152h-1.364Z" transform="translate(104.261 67.935)" fill="#fff"/>
    <path id="パス_26" data-name="パス 26" d="M169.355,90.427h-1.366V76.607h1.366v7.052a3.382,3.382,0,0,1,2.692-1.288,3.9,3.9,0,0,1,3.829,4.17,3.827,3.827,0,0,1-3.772,4.113,3.338,3.338,0,0,1-2.748-1.327Zm5.118-3.887a2.7,2.7,0,0,0-2.579-2.957,2.731,2.731,0,0,0-2.616,2.938,2.69,2.69,0,0,0,2.635,2.918,2.649,2.649,0,0,0,2.56-2.9" transform="translate(106.317 66.754)" fill="#fff"/>
    <path id="パス_27" data-name="パス 27" d="M183.279,87.236a4.687,4.687,0,0,1-.967,1.27,3.813,3.813,0,0,1-2.615.966,3.765,3.765,0,0,1-3.887-4.113c0-2.35,1.44-4.17,3.81-4.17a3.517,3.517,0,0,1,2.976,1.44,5.284,5.284,0,0,1,.741,2.958h-6.123a2.519,2.519,0,0,0,2.5,2.672,2.39,2.39,0,0,0,1.611-.569,3.148,3.148,0,0,0,.815-1.081Zm-1.346-2.786A2.354,2.354,0,0,0,179.62,82.4a2.392,2.392,0,0,0-2.313,2.047Z" transform="translate(108.334 67.935)" fill="#fff"/>
    <path id="パス_28" data-name="パス 28" d="M187.1,83.2A1.206,1.206,0,0,0,186,82.4a.869.869,0,0,0-.948.891c0,.569.38.74,1.269,1.118a4.789,4.789,0,0,1,1.972,1.213,1.869,1.869,0,0,1,.418,1.272A2.5,2.5,0,0,1,186,89.472a2.811,2.811,0,0,1-2.748-2.009l1.175-.493a1.778,1.778,0,0,0,1.591,1.289,1.222,1.222,0,0,0,1.291-1.25c0-.74-.532-.986-1.27-1.308a5.123,5.123,0,0,1-1.914-1.157,1.707,1.707,0,0,1-.361-1.156,2.115,2.115,0,0,1,2.294-2.2,2.27,2.27,0,0,1,2.161,1.421Z" transform="translate(110.254 67.935)" fill="#fff"/>
    <path id="パス_29" data-name="パス 29" d="M190.889,83.173V89.79h-1.365V83.173h-.834V81.922h.834V79.079h1.365v2.843h1.365v1.252Z" transform="translate(111.655 67.391)" fill="#fff"/>
    <rect id="長方形_2" data-name="長方形 2" width="1.364" height="13.819" transform="translate(309.621 143.362)" fill="#fff"/>
    <path id="パス_30" data-name="パス 30" d="M200.156,78.2a.967.967,0,1,1-.966.969.972.972,0,0,1,.966-.969m.683,11.811h-1.366V82.147h1.366Z" transform="translate(114.363 67.166)" fill="#fff"/>
    <path id="パス_31" data-name="パス 31" d="M204.375,83.854V90.47H203.01V83.854h-.758V82.6h.758V79.171a2.716,2.716,0,0,1,.758-2.216,2.446,2.446,0,0,1,1.574-.513,2.631,2.631,0,0,1,.966.171v1.327a2.478,2.478,0,0,0-.891-.17.954.954,0,0,0-.872.416,2.359,2.359,0,0,0-.171,1.138V82.6h1.933v1.252Z" transform="translate(115.153 66.711)" fill="#fff"/>
    <path id="パス_32" data-name="パス 32" d="M213.827,87.236a4.713,4.713,0,0,1-.967,1.27,3.815,3.815,0,0,1-2.615.966,3.765,3.765,0,0,1-3.887-4.113c0-2.35,1.44-4.17,3.81-4.17a3.519,3.519,0,0,1,2.976,1.44,5.284,5.284,0,0,1,.74,2.958h-6.122a2.518,2.518,0,0,0,2.5,2.672,2.39,2.39,0,0,0,1.613-.569,3.129,3.129,0,0,0,.814-1.081Zm-1.346-2.786a2.354,2.354,0,0,0-2.313-2.047,2.392,2.392,0,0,0-2.313,2.047Z" transform="translate(116.211 67.935)" fill="#fff"/>
    <path id="パス_33" data-name="パス 33" d="M217.64,83.2a1.2,1.2,0,0,0-1.1-.795.869.869,0,0,0-.948.891c0,.569.38.74,1.27,1.118a4.791,4.791,0,0,1,1.971,1.213,1.861,1.861,0,0,1,.416,1.272,2.5,2.5,0,0,1-2.709,2.576,2.812,2.812,0,0,1-2.75-2.009l1.176-.493a1.78,1.78,0,0,0,1.592,1.289,1.222,1.222,0,0,0,1.289-1.25c0-.74-.532-.986-1.27-1.308a5.123,5.123,0,0,1-1.915-1.157,1.706,1.706,0,0,1-.36-1.156,2.114,2.114,0,0,1,2.293-2.2,2.27,2.27,0,0,1,2.161,1.421Z" transform="translate(118.128 67.935)" fill="#fff"/>
    <path id="パス_34" data-name="パス 34" d="M221.419,83.173V89.79h-1.365V83.173h-.834V81.922h.834V79.079h1.365v2.843h1.365v1.252Z" transform="translate(119.528 67.391)" fill="#fff"/>
    <path id="パス_35" data-name="パス 35" d="M226.567,88.467l-3.621-7.128H224.5l2.787,5.631,2.559-5.631h1.517l-5.782,12.228h-1.517Z" transform="translate(120.489 67.974)" fill="#fff"/>
    <rect id="長方形_3" data-name="長方形 3" width="1.366" height="13.819" transform="translate(353.681 143.362)" fill="#fff"/>
    <path id="パス_36" data-name="パス 36" d="M241.567,87.236a4.657,4.657,0,0,1-.966,1.27,3.81,3.81,0,0,1-2.615.966,3.765,3.765,0,0,1-3.887-4.113c0-2.35,1.44-4.17,3.81-4.17a3.519,3.519,0,0,1,2.976,1.44,5.284,5.284,0,0,1,.74,2.958H235.5a2.52,2.52,0,0,0,2.5,2.672,2.39,2.39,0,0,0,1.611-.569,3.132,3.132,0,0,0,.815-1.081Zm-1.345-2.786a2.354,2.354,0,0,0-2.313-2.047,2.391,2.391,0,0,0-2.313,2.047Z" transform="translate(123.365 67.935)" fill="#fff"/>
    <g id="グループ_12" data-name="グループ 12">
      <path id="パス_7" data-name="パス 7" d="M28.662,58.81a9.229,9.229,0,1,0,13.047-.343,9.228,9.228,0,0,0-13.047.343" transform="translate(69.737 61.423)" fill="#f29600"/>
      <path id="パス_42" data-name="パス 42" d="M58.508,63.5a9.229,9.229,0,1,0,13.048-.343,9.228,9.228,0,0,0-13.048.343" transform="translate(77.433 62.634)" fill="#8dc21f"/>
      <path id="パス_43" data-name="パス 43" d="M56.032,57.226l9.125,8.657a9.229,9.229,0,0,1,13.39,12.7l9.123,8.655,22.467-23.679a11,11,0,0,0-.408-15.508L86.048,25.588Z" transform="translate(77.448 53.598)" fill="#2ca6e0"/>
      <path id="パス_44" data-name="パス 44" d="M48,3.406,25.537,27.087,57.175,57.1l8.657-9.125a9.229,9.229,0,1,1,12.7-13.39l8.655-9.123L63.512,3A11,11,0,0,0,48,3.406" transform="translate(69.585 47)" fill="#fff000"/>
      <path id="パス_45" data-name="パス 45" d="M63.16,33.7a9.229,9.229,0,1,0,13.048-.343A9.228,9.228,0,0,0,63.16,33.7" transform="translate(78.633 54.949)" fill="#2ca6e0"/>
      <path id="パス_46" data-name="パス 46" d="M33.369,28.95a9.229,9.229,0,1,0,13.048-.343,9.228,9.228,0,0,0-13.048.343" transform="translate(70.951 53.723)" fill="#fff000"/>
      <path id="パス_47" data-name="パス 47" d="M47.98,48.191a9.229,9.229,0,1,1-13.39-12.7L25.465,26.83,3,50.51a11,11,0,0,0,.408,15.508l23.68,22.467L57.1,56.848Z" transform="translate(63 53.918)" fill="#f29600"/>
      <path id="パス_48" data-name="パス 48" d="M48.233,65.157a9.229,9.229,0,1,1-12.7,13.39l-8.657,9.125,23.68,22.467a11,11,0,0,0,15.508-.408L88.527,86.05,56.89,56.034Z" transform="translate(69.929 61.449)" fill="#8dc21f"/>
    </g>
  </g>
</svg>
