<svg xmlns="http://www.w3.org/2000/svg" width="26.585" height="26.585" viewBox="0 0 26.585 26.585">
  <g id="グループ_13" data-name="グループ 13" transform="translate(-63 -47)">
    <path id="パス_7" data-name="パス 7" d="M26.657,56.532a1.923,1.923,0,1,0,2.719-.072,1.923,1.923,0,0,0-2.719.072" transform="translate(43.72 5.728)" fill="#f29600"/>
    <path id="パス_42" data-name="パス 42" d="M56.5,61.227a1.923,1.923,0,1,0,2.719-.072,1.923,1.923,0,0,0-2.719.072" transform="translate(21.697 2.263)" fill="#8dc21f"/>
    <path id="パス_43" data-name="パス 43" d="M56.032,32.18l1.9,1.8a1.923,1.923,0,0,1,2.79,2.647l1.9,1.8L67.306,33.5a2.292,2.292,0,0,0-.085-3.231l-4.934-4.681Z" transform="translate(21.655 28.119)" fill="#2ca6e0"/>
    <path id="パス_44" data-name="パス 44" d="M30.218.71,25.537,5.644,32.129,11.9l1.8-1.9a1.923,1.923,0,1,1,2.647-2.79l1.8-1.9L33.45.625A2.293,2.293,0,0,0,30.218.71" transform="translate(44.157 47)" fill="#fff000"/>
    <path id="パス_45" data-name="パス 45" d="M61.155,31.426a1.923,1.923,0,1,0,2.719-.072,1.923,1.923,0,0,0-2.719.072" transform="translate(18.264 24.253)" fill="#2ca6e0"/>
    <path id="パス_46" data-name="パス 46" d="M31.364,26.672a1.923,1.923,0,1,0,2.719-.072,1.923,1.923,0,0,0-2.719.072" transform="translate(40.247 27.761)" fill="#fff000"/>
    <path id="パス_47" data-name="パス 47" d="M10,31.281a1.923,1.923,0,1,1-2.79-2.647l-1.9-1.8L.625,31.764A2.293,2.293,0,0,0,.71,35l4.934,4.681L11.9,33.085Z" transform="translate(63 27.202)" fill="#f29600"/>
    <path id="パス_48" data-name="パス 48" d="M31.323,57.935a1.923,1.923,0,1,1-2.647,2.79l-1.8,1.9,4.934,4.681a2.293,2.293,0,0,0,3.231-.085l4.681-4.934-6.592-6.255Z" transform="translate(43.172 5.653)" fill="#8dc21f"/>
  </g>
</svg>
